<svg xmlns="http://www.w3.org/2000/svg" viewBox="0 0 400 300" width="400" height="300">

  <defs>
    <linearGradient id="bggoat" x1="0" y1="0" x2="1" y2="1" gradientUnits="objectBoundingBox">
      <stop offset="0%" stop-color="#eef3fc"/>
      <stop offset="100%" stop-color="#f7f9ff"/>
    </linearGradient>
    <linearGradient id="circlegoat" x1="0" y1="0" x2="0" y2="1" gradientUnits="objectBoundingBox">
      <stop offset="0%" stop-color="#4a7cc7"/>
      <stop offset="100%" stop-color="#1a3a6b"/>
    </linearGradient>
    <linearGradient id="animalgoat" x1="0" y1="0" x2="0" y2="1" gradientUnits="objectBoundingBox">
      <stop offset="0%" stop-color="#ffffff"/>
      <stop offset="100%" stop-color="#c8ddf7"/>
    </linearGradient>
    <filter id="shadowgoat">
      <feDropShadow dx="0" dy="4" stdDeviation="8" flood-color="#1a3a6b" flood-opacity="0.15"/>
    </filter>
  </defs>
  <!-- Background -->
  <rect width="400" height="300" fill="url(#bggoat)" rx="16"/>

  <!-- Decorative molecules -->
  
    <g opacity="0.25">
      <circle cx="30" cy="30" r="10" fill="none" stroke="#4a7cc7" stroke-width="1.5"/>
      <circle cx="56" cy="20" r="7" fill="none" stroke="#4a7cc7" stroke-width="1.5"/>
      <circle cx="20" cy="56" r="7" fill="none" stroke="#4a7cc7" stroke-width="1.5"/>
      <line x1="38" y1="24" x2="51" y2="24" stroke="#4a7cc7" stroke-width="1.5"/>
      <line x1="24" y1="38" x2="24" y2="51" stroke="#4a7cc7" stroke-width="1.5"/>
    </g>
    <g opacity="0.2" transform="translate(370,270) rotate(180)">
      <circle cx="0" cy="0" r="10" fill="none" stroke="#4a7cc7" stroke-width="1.5"/>
      <circle cx="26" cy="-10" r="7" fill="none" stroke="#4a7cc7" stroke-width="1.5"/>
      <circle cx="-10" cy="26" r="7" fill="none" stroke="#4a7cc7" stroke-width="1.5"/>
      <line x1="8" y1="-6" x2="21" y2="-6" stroke="#4a7cc7" stroke-width="1.5"/>
      <line x1="-6" y1="8" x2="-6" y2="21" stroke="#4a7cc7" stroke-width="1.5"/>
    </g>

  <!-- ELISA well plate strip -->
  <rect x="16" y="258" width="368" height="32" rx="8" fill="#ffffff" opacity="0.7" stroke="#c8ddf7" stroke-width="1"/>
  <text x="20" y="268" font-size="8" fill="#6b7280" opacity="0.7" font-family="monospace">96-well plate</text>
  <circle cx="28" cy="268" r="4.5" fill="#c8ddf7" opacity="0.9" stroke="#7faee8" stroke-width="0.5"/><circle cx="58" cy="268" r="4.5" fill="#c8ddf7" opacity="0.9" stroke="#7faee8" stroke-width="0.5"/><circle cx="88" cy="268" r="4.5" fill="#c8ddf7" opacity="0.9" stroke="#7faee8" stroke-width="0.5"/><circle cx="118" cy="268" r="4.5" fill="#c8ddf7" opacity="0.9" stroke="#7faee8" stroke-width="0.5"/><circle cx="148" cy="268" r="4.5" fill="#c8ddf7" opacity="0.9" stroke="#7faee8" stroke-width="0.5"/><circle cx="178" cy="268" r="4.5" fill="#c8ddf7" opacity="0.9" stroke="#7faee8" stroke-width="0.5"/><circle cx="208" cy="268" r="4.5" fill="#c8ddf7" opacity="0.9" stroke="#7faee8" stroke-width="0.5"/><circle cx="238" cy="268" r="4.5" fill="#c8ddf7" opacity="0.9" stroke="#7faee8" stroke-width="0.5"/><circle cx="268" cy="268" r="4.5" fill="#c8ddf7" opacity="0.9" stroke="#7faee8" stroke-width="0.5"/><circle cx="298" cy="268" r="4.5" fill="#c8ddf7" opacity="0.9" stroke="#7faee8" stroke-width="0.5"/><circle cx="328" cy="268" r="4.5" fill="#c8ddf7" opacity="0.9" stroke="#7faee8" stroke-width="0.5"/><circle cx="358" cy="268" r="4.5" fill="#c8ddf7" opacity="0.9" stroke="#7faee8" stroke-width="0.5"/><circle cx="28" cy="282" r="4.5" fill="#c8ddf7" opacity="0.7" stroke="#7faee8" stroke-width="0.5"/><circle cx="58" cy="282" r="4.5" fill="#c8ddf7" opacity="0.7" stroke="#7faee8" stroke-width="0.5"/><circle cx="88" cy="282" r="4.5" fill="#c8ddf7" opacity="0.7" stroke="#7faee8" stroke-width="0.5"/><circle cx="118" cy="282" r="4.5" fill="#c8ddf7" opacity="0.7" stroke="#7faee8" stroke-width="0.5"/><circle cx="148" cy="282" r="4.5" fill="#c8ddf7" opacity="0.7" stroke="#7faee8" stroke-width="0.5"/><circle cx="178" cy="282" r="4.5" fill="#c8ddf7" opacity="0.7" stroke="#7faee8" stroke-width="0.5"/><circle cx="208" cy="282" r="4.5" fill="#c8ddf7" opacity="0.7" stroke="#7faee8" stroke-width="0.5"/><circle cx="238" cy="282" r="4.5" fill="#c8ddf7" opacity="0.7" stroke="#7faee8" stroke-width="0.5"/><circle cx="268" cy="282" r="4.5" fill="#c8ddf7" opacity="0.7" stroke="#7faee8" stroke-width="0.5"/><circle cx="298" cy="282" r="4.5" fill="#c8ddf7" opacity="0.7" stroke="#7faee8" stroke-width="0.5"/><circle cx="328" cy="282" r="4.5" fill="#c8ddf7" opacity="0.7" stroke="#7faee8" stroke-width="0.5"/><circle cx="358" cy="282" r="4.5" fill="#c8ddf7" opacity="0.7" stroke="#7faee8" stroke-width="0.5"/>

  <!-- Main illustration circle -->
  <circle cx="200" cy="140" r="90" fill="url(#circlegoat)" filter="url(#shadowgoat)" opacity="0.12"/>
  <circle cx="200" cy="140" r="80" fill="#ffffff" filter="url(#shadowgoat)"/>
  <circle cx="200" cy="140" r="80" fill="none" stroke="#c8ddf7" stroke-width="2"/>

  <!-- Animal SVG -->
  
    <!-- Gövde -->
    <ellipse cx="205" cy="152" rx="38" ry="26" fill="#1a3a6b" opacity="0.85"/>
    <!-- Baş -->
    <ellipse cx="165" cy="130" rx="20" ry="18" fill="#1a3a6b" opacity="0.9"/>
    <!-- Boynuz (kıvrık) -->
    <path d="M157 114 Q148 100 156 94 Q164 90 162 104" fill="none" stroke="#4a7cc7" stroke-width="4.5" stroke-linecap="round"/>
    <path d="M172 112 Q178 98 185 95 Q190 93 186 107" fill="none" stroke="#4a7cc7" stroke-width="4.5" stroke-linecap="round"/>
    <!-- Sakal -->
    <path d="M160 145 Q162 155 158 162" fill="none" stroke="#7faee8" stroke-width="3" stroke-linecap="round"/>
    <!-- Göz -->
    <circle cx="157" cy="128" r="3.5" fill="#ffffff"/>
    <circle cx="158" cy="128" r="1.8" fill="#1a3a6b"/>
    <!-- Burun -->
    <ellipse cx="147" cy="137" rx="6" ry="4" fill="#4a7cc7" opacity="0.6"/>
    <!-- Bacaklar -->
    <rect x="175" y="173" width="13" height="25" rx="5" fill="#4a7cc7" opacity="0.85"/>
    <rect x="193" y="173" width="13" height="25" rx="5" fill="#4a7cc7" opacity="0.85"/>
    <rect x="211" y="173" width="13" height="25" rx="5" fill="#4a7cc7" opacity="0.85"/>
    <rect x="229" y="173" width="13" height="25" rx="5" fill="#4a7cc7" opacity="0.85"/>
    <!-- Kuyruk -->
    <path d="M243 140 Q258 132 255 148" fill="none" stroke="#7faee8" stroke-width="4" stroke-linecap="round"/>

  <!-- Label area -->
  <text x="200" y="232" text-anchor="middle" font-family="'Segoe UI', Arial, sans-serif" font-size="14" font-weight="700" fill="#1a3a6b">Keçi ELISA Kiti</text>
  <text x="200" y="248" text-anchor="middle" font-family="'Segoe UI', Arial, sans-serif" font-size="11" fill="#2d5aa0">Caprine/Goat</text>
</svg>