<svg xmlns="http://www.w3.org/2000/svg" viewBox="0 0 400 300" width="400" height="300">

  <defs>
    <linearGradient id="bgpig" x1="0" y1="0" x2="1" y2="1" gradientUnits="objectBoundingBox">
      <stop offset="0%" stop-color="#eef3fc"/>
      <stop offset="100%" stop-color="#f7f9ff"/>
    </linearGradient>
    <linearGradient id="circlepig" x1="0" y1="0" x2="0" y2="1" gradientUnits="objectBoundingBox">
      <stop offset="0%" stop-color="#4a7cc7"/>
      <stop offset="100%" stop-color="#1a3a6b"/>
    </linearGradient>
    <linearGradient id="animalpig" x1="0" y1="0" x2="0" y2="1" gradientUnits="objectBoundingBox">
      <stop offset="0%" stop-color="#ffffff"/>
      <stop offset="100%" stop-color="#c8ddf7"/>
    </linearGradient>
    <filter id="shadowpig">
      <feDropShadow dx="0" dy="4" stdDeviation="8" flood-color="#1a3a6b" flood-opacity="0.15"/>
    </filter>
  </defs>
  <!-- Background -->
  <rect width="400" height="300" fill="url(#bgpig)" rx="16"/>

  <!-- Decorative molecules -->
  
    <g opacity="0.25">
      <circle cx="30" cy="30" r="10" fill="none" stroke="#4a7cc7" stroke-width="1.5"/>
      <circle cx="56" cy="20" r="7" fill="none" stroke="#4a7cc7" stroke-width="1.5"/>
      <circle cx="20" cy="56" r="7" fill="none" stroke="#4a7cc7" stroke-width="1.5"/>
      <line x1="38" y1="24" x2="51" y2="24" stroke="#4a7cc7" stroke-width="1.5"/>
      <line x1="24" y1="38" x2="24" y2="51" stroke="#4a7cc7" stroke-width="1.5"/>
    </g>
    <g opacity="0.2" transform="translate(370,270) rotate(180)">
      <circle cx="0" cy="0" r="10" fill="none" stroke="#4a7cc7" stroke-width="1.5"/>
      <circle cx="26" cy="-10" r="7" fill="none" stroke="#4a7cc7" stroke-width="1.5"/>
      <circle cx="-10" cy="26" r="7" fill="none" stroke="#4a7cc7" stroke-width="1.5"/>
      <line x1="8" y1="-6" x2="21" y2="-6" stroke="#4a7cc7" stroke-width="1.5"/>
      <line x1="-6" y1="8" x2="-6" y2="21" stroke="#4a7cc7" stroke-width="1.5"/>
    </g>

  <!-- ELISA well plate strip -->
  <rect x="16" y="258" width="368" height="32" rx="8" fill="#ffffff" opacity="0.7" stroke="#c8ddf7" stroke-width="1"/>
  <text x="20" y="268" font-size="8" fill="#6b7280" opacity="0.7" font-family="monospace">96-well plate</text>
  <circle cx="28" cy="268" r="4.5" fill="#c8ddf7" opacity="0.9" stroke="#7faee8" stroke-width="0.5"/><circle cx="58" cy="268" r="4.5" fill="#c8ddf7" opacity="0.9" stroke="#7faee8" stroke-width="0.5"/><circle cx="88" cy="268" r="4.5" fill="#c8ddf7" opacity="0.9" stroke="#7faee8" stroke-width="0.5"/><circle cx="118" cy="268" r="4.5" fill="#c8ddf7" opacity="0.9" stroke="#7faee8" stroke-width="0.5"/><circle cx="148" cy="268" r="4.5" fill="#c8ddf7" opacity="0.9" stroke="#7faee8" stroke-width="0.5"/><circle cx="178" cy="268" r="4.5" fill="#c8ddf7" opacity="0.9" stroke="#7faee8" stroke-width="0.5"/><circle cx="208" cy="268" r="4.5" fill="#c8ddf7" opacity="0.9" stroke="#7faee8" stroke-width="0.5"/><circle cx="238" cy="268" r="4.5" fill="#c8ddf7" opacity="0.9" stroke="#7faee8" stroke-width="0.5"/><circle cx="268" cy="268" r="4.5" fill="#c8ddf7" opacity="0.9" stroke="#7faee8" stroke-width="0.5"/><circle cx="298" cy="268" r="4.5" fill="#c8ddf7" opacity="0.9" stroke="#7faee8" stroke-width="0.5"/><circle cx="328" cy="268" r="4.5" fill="#c8ddf7" opacity="0.9" stroke="#7faee8" stroke-width="0.5"/><circle cx="358" cy="268" r="4.5" fill="#c8ddf7" opacity="0.9" stroke="#7faee8" stroke-width="0.5"/><circle cx="28" cy="282" r="4.5" fill="#c8ddf7" opacity="0.7" stroke="#7faee8" stroke-width="0.5"/><circle cx="58" cy="282" r="4.5" fill="#c8ddf7" opacity="0.7" stroke="#7faee8" stroke-width="0.5"/><circle cx="88" cy="282" r="4.5" fill="#c8ddf7" opacity="0.7" stroke="#7faee8" stroke-width="0.5"/><circle cx="118" cy="282" r="4.5" fill="#c8ddf7" opacity="0.7" stroke="#7faee8" stroke-width="0.5"/><circle cx="148" cy="282" r="4.5" fill="#c8ddf7" opacity="0.7" stroke="#7faee8" stroke-width="0.5"/><circle cx="178" cy="282" r="4.5" fill="#c8ddf7" opacity="0.7" stroke="#7faee8" stroke-width="0.5"/><circle cx="208" cy="282" r="4.5" fill="#c8ddf7" opacity="0.7" stroke="#7faee8" stroke-width="0.5"/><circle cx="238" cy="282" r="4.5" fill="#c8ddf7" opacity="0.7" stroke="#7faee8" stroke-width="0.5"/><circle cx="268" cy="282" r="4.5" fill="#c8ddf7" opacity="0.7" stroke="#7faee8" stroke-width="0.5"/><circle cx="298" cy="282" r="4.5" fill="#c8ddf7" opacity="0.7" stroke="#7faee8" stroke-width="0.5"/><circle cx="328" cy="282" r="4.5" fill="#c8ddf7" opacity="0.7" stroke="#7faee8" stroke-width="0.5"/><circle cx="358" cy="282" r="4.5" fill="#c8ddf7" opacity="0.7" stroke="#7faee8" stroke-width="0.5"/>

  <!-- Main illustration circle -->
  <circle cx="200" cy="140" r="90" fill="url(#circlepig)" filter="url(#shadowpig)" opacity="0.12"/>
  <circle cx="200" cy="140" r="80" fill="#ffffff" filter="url(#shadowpig)"/>
  <circle cx="200" cy="140" r="80" fill="none" stroke="#c8ddf7" stroke-width="2"/>

  <!-- Animal SVG -->
  
    <!-- Gövde (yuvarlak) -->
    <circle cx="205" cy="155" rx="40" r="40" fill="#1a3a6b" opacity="0.85" cx="205" cy="155"/>
    <ellipse cx="205" cy="155" rx="42" ry="36" fill="#1a3a6b" opacity="0.85"/>
    <!-- Baş -->
    <circle cx="170" cy="132" r="28" fill="#1a3a6b" opacity="0.9"/>
    <!-- Kulak -->
    <path d="M153 110 Q148 96 160 98 Q170 100 165 114" fill="#4a7cc7" opacity="0.85"/>
    <path d="M185 108 Q188 94 198 98 Q205 104 196 114" fill="#4a7cc7" opacity="0.85"/>
    <!-- Kulak iç -->
    <path d="M156 110 L153 100 L162 103 Z" fill="#c8ddf7" opacity="0.5"/>
    <path d="M186 109 L189 99 L195 103 Z" fill="#c8ddf7" opacity="0.5"/>
    <!-- Yuvarlak burun -->
    <ellipse cx="158" cy="143" rx="14" ry="11" fill="#4a7cc7" opacity="0.7"/>
    <circle cx="153" cy="143" r="3.5" fill="#1a3a6b" opacity="0.5"/>
    <circle cx="163" cy="143" r="3.5" fill="#1a3a6b" opacity="0.5"/>
    <!-- Göz -->
    <circle cx="158" cy="126" r="4.5" fill="#ffffff"/>
    <circle cx="159" cy="126" r="2.5" fill="#1a3a6b"/>
    <circle cx="183" cy="124" r="4.5" fill="#ffffff"/>
    <circle cx="184" cy="124" r="2.5" fill="#1a3a6b"/>
    <!-- Bacaklar (kısa) -->
    <rect x="177" y="187" width="14" height="18" rx="7" fill="#4a7cc7" opacity="0.85"/>
    <rect x="197" y="188" width="14" height="18" rx="7" fill="#4a7cc7" opacity="0.85"/>
    <rect x="217" y="187" width="14" height="18" rx="7" fill="#4a7cc7" opacity="0.85"/>
    <!-- Kıvrık kuyruk -->
    <path d="M247 148 Q260 140 262 152 Q262 162 252 162 Q244 162 244 154" fill="none" stroke="#4a7cc7" stroke-width="4" stroke-linecap="round"/>

  <!-- Label area -->
  <text x="200" y="232" text-anchor="middle" font-family="'Segoe UI', Arial, sans-serif" font-size="14" font-weight="700" fill="#1a3a6b">Domuz ELISA Kiti</text>
  <text x="200" y="248" text-anchor="middle" font-family="'Segoe UI', Arial, sans-serif" font-size="11" fill="#2d5aa0">Porcine/Pig</text>
</svg>